<svg height="512pt" viewBox="-39 0 512 512.00073" width="512pt" xmlns="http://www.w3.org/2000/svg"><path d="m423.894531 322.835938v179.164062h-321.09375v-1.964844c7.109375-3.3125 12.027344-10.523437 12.027344-18.886718v-141.785157c0-8.363281-4.917969-15.574219-12.027344-18.890625 0-42.859375 34.734375-75.230468 77.589844-75.230468h165.910156c42.859375.003906 77.59375 34.738281 77.59375 77.59375zm0 0" fill="#bdd9ff"/><path d="m94.007812 502h-63.191406c-11.496094 0-20.816406-9.320312-20.816406-20.816406v-141.855469c0-11.496094 9.320312-20.816406 20.816406-20.816406h63.191406c11.5 0 20.816407 9.320312 20.816407 20.816406v141.855469c0 11.496094-9.316407 20.816406-20.816407 20.816406zm0 0" fill="#98a1b3"/><path d="m36.484375 272.457031v46.054688h-5.628906c-11.515625 0-20.851563 9.335937-20.851563 20.851562v-66.902343h26.480469zm0 0" fill="#98a1b3"/><path d="m341.496094 166.089844c0 43.71875-35.4375 79.164062-79.164063 79.164062-43.71875-.007812-79.167969-35.445312-79.167969-79.175781 0-14.78125 4.058594-28.613281 11.109376-40.453125 8.972656 8.734375 25.242187 18.179688 53.632812 18.179688h28.847656c28.386719 0 44.660156-9.433594 53.636719-18.167969 7.058594 11.835937 11.105469 25.667969 11.105469 40.453125zm0 0" fill="#ffd4be"/><path d="m263.347656 282.476562-32.699218 33.074219-39.003907-70.304687h33.8125zm0 0" fill="#98a1b3"/><path d="m263.347656 282.476562 32.699219 33.074219 39.003906-70.304687h-33.8125zm0 0" fill="#98a1b3"/><path d="m319.109375 417.828125h-1.714844c-10.828125 0-19.605469-8.777344-19.605469-19.605469v-26.628906h40.925782v26.628906c0 10.828125-8.777344 19.605469-19.605469 19.605469zm0 0" fill="#eff3f3"/><path d="m352.402344 45.632812h-.039063c-33.449219 0-65.640625-12.738281-90.027343-35.632812l-1.945313 1.757812c-24.171875 21.804688-55.570313 33.875-88.121094 33.875-7.121093 0-13.539062 4.300782-16.246093 10.886719l-8.585938 20.890625h229.796875l-8.585937-20.890625c-2.707032-6.585937-9.125-10.886719-16.246094-10.886719zm0 0" fill="#98a1b3"/><path d="m184.234375 77.410156h156.199219v33.742188h-156.199219zm0 0" fill="#bdd9ff"/><path d="m270.226562 111.152344h-85.992187s10.886719 32.652344 63.679687 32.652344h6.53125 15.78125 6.53125c52.792969 0 63.675782-32.652344 63.675782-32.652344zm0 0" fill="#98a1b3"/><path d="m225.457031 245.246094 37.890625 37.230468 37.890625-37.230468zm0 0" fill="#ffd4be"/><path d="m346.304688 235.246094h-27.757813c20.09375-16.363282 32.949219-41.285156 32.949219-69.15625 0-13.574219-3.09375-26.914063-8.980469-39 5.285156-6.703125 7.210937-12.183594 7.40625-12.773438.007813-.023437.011719-.042968.015625-.0625.226562-.699218.382812-1.429687.449219-2.1875.011719-.121094.011719-.242187.019531-.367187.011719-.183594.027344-.363281.027344-.546875v-23.742188h26.800781c3.335937 0 6.453125-1.664062 8.308594-4.4375 1.855469-2.769531 2.207031-6.28125.941406-9.367187l-8.585937-20.890625c-4.269532-10.375-14.273438-17.082032-25.496094-17.082032h-.039063c-31.023437 0-60.5625-11.691406-83.183593-32.921874-3.792969-3.5625-9.683594-3.621094-13.542969-.136719l-1.945313 1.757812c-22.371094 20.183594-51.289062 31.300781-81.421875 31.300781-11.222656 0-21.230469 6.707032-25.496093 17.085938l-8.585938 20.886719c-1.269531 3.085937-.914062 6.597656.941406 9.367187 1.855469 2.773438 4.972656 4.4375 8.308594 4.4375h26.796875v23.742188c0 .183594.019531.363281.03125.546875.003906.121093.003906.242187.015625.367187.070312.757813.222656 1.488282.453125 2.1875.003906.019532.007813.039063.015625.058594.195312.59375 2.117188 6.070312 7.398438 12.769531-5.886719 12.097657-8.980469 25.433594-8.980469 38.996094 0 27.875 12.859375 52.800781 32.960937 69.167969h-25.734375c-7.875 0-15.695312 1.050781-23.242187 3.121094-5.324219 1.460937-8.457032 6.964843-6.992188 12.292968 1.464844 5.324219 6.964844 8.460938 12.289063 6.992188 5.820312-1.597656 11.859375-2.40625 17.945312-2.40625h5.363281l36.148438 65.15625c1.527344 2.753906 4.261719 4.625 7.382812 5.054687.453126.0625.910157.09375 1.363282.09375 2.652344 0 5.21875-1.058593 7.109375-2.96875l15.589843-15.765625-.003906 194.625c0 5.523438 4.476563 10 10 10 5.523438 0 10-4.476562 10-10v-194.625l15.589844 15.765625c1.890625 1.910157 4.457031 2.96875 7.109375 2.96875.453125 0 .90625-.03125 1.363281-.09375 3.117188-.429687 5.855469-2.300781 7.382813-5.054687l36.148437-65.15625h5.363282c37.269531 0 67.59375 30.320312 67.59375 67.589844v179.164062c0 5.523438 4.476562 10 10 10 5.519531 0 10-4.476562 10-10v-179.164062c0-48.296876-39.296876-87.589844-87.59375-87.589844zm-75.054688 25.445312-7.902344 7.765625-13.445312-13.210937h11.707031c.238281 0 .480469.007812.722656.007812.246094 0 .488281-.007812.730469-.007812h13.730469zm47.289062-138.144531c-12.644531 9.113281-28.601562 11.257813-43.792968 11.257813-8.777344 0-17.554688 0-26.335938 0s-17.808594-.789063-26.210937-3.484376c-7.90625-2.425781-13.707031-5.808593-17.898438-9.167968h116.074219c-.042969.035156-.089844.066406-.132812.101562-.554688.441406-1.125.871094-1.703126 1.292969zm-153.265624-62.222656c1.167968-2.851563 3.917968-4.691407 6.996093-4.691407 32.984375 0 64.714844-11.4375 90.042969-32.332031 25.328125 20.910157 56.96875 32.332031 90.050781 32.332031h.039063c3.078125 0 5.824218 1.84375 6.996094 4.6875l2.914062 7.089844h-199.953125zm165.160156 27.085937v13.742188h-136.199219v-13.742188zm-137.269532 78.667969c0-8.585937 1.59375-17.054687 4.660157-24.976563 10.363281 6.574219 25.054687 11.941407 45.628906 12.625.148437.007813.300781.011719.449219.015626 1.316406.039062 2.648437.066406 4.007812.066406h28.847656c1.363282 0 2.695313-.027344 4.011719-.066406.144531-.003907.289063-.007813.429688-.015626 20.582031-.679687 35.273437-6.046874 45.640625-12.621093 3.0625 7.914062 4.65625 16.390625 4.65625 24.984375 0 38.007812-30.820313 68.945312-68.777344 69.15625h-.769531c-37.960938-.21875-68.785157-31.160156-68.785157-69.167969zm39.753907 132.953125-24.289063-43.785156h12.738282l19.882812 19.539062 7.933594 7.796875zm60.859375 0-16.265625-16.449219 27.816406-27.335937h12.738281zm0 0"/><path d="m124.777344 337.636719c-.003906-.097657-.015625-.191407-.019532-.285157-.035156-.503906-.078124-1.003906-.132812-1.5-.003906-.039062-.011719-.074218-.015625-.113281-.972656-8.347656-5.292969-15.683593-11.582031-20.632812.332031-4.648438 1.035156-8.300781 2.390625-12.933594 1.550781-5.300781-1.488281-10.855469-6.792969-12.402344-5.292969-1.546875-10.851562 1.488281-12.402344 6.792969-1.242187 4.246094-2.074218 7.980469-2.613281 11.949219h-47.125v-36.054688c0-5.519531-4.476563-10-10-10h-3.242187v-58.121093c0-5.523438-4.480469-10-10-10-5.523438 0-10 4.476562-10 10v58.121093h-3.238282c-5.523437 0-9.99999975 4.480469-9.99999975 10v66.753907c0 .039062-.00390625.078124-.00390625.117187v141.855469c0 16.992187 13.824219 30.816406 30.816406 30.816406h63.191406c1.917969 0 3.796876-.1875 5.617188-.523438 2.988281-.609374 9.136719-2.894531 12.203125-5.175781.015625-.007812.027344-.019531.042969-.03125 6.855468-4.894531 11.625-12.523437 12.710937-21.28125.085938-.683593.152344-1.371093.191407-2.054687.027343-.53125.042968-1.0625.046874-1.59375 0-.066406.007813-.128906.007813-.195313v-141.78125c0-.089843-.007813-.179687-.007813-.273437-.003906-.488282-.015624-.972656-.042968-1.453125zm-104.773438-55.175781h6.480469v26.359374c-.007813 0-.011719.003907-.019531.003907-2.242188.316406-4.402344.875-6.460938 1.648437zm-.003906 198.722656v-141.761719c0-.019531.003906-.039063.003906-.058594 0-5.984375 4.867188-10.851562 10.851563-10.851562h5.628906.019531 57.503906c1.621094 0 3.148438.367187 4.53125 1.003906.011719.007813.023438.015625.035157.019531 3.234375 1.511719 5.492187 4.53125 6.089843 7.988282.027344.160156.054688.316406.074219.476562.015625.128906.03125.257812.039063.386719.027344.3125.050781.625.050781.941406v141.855469c0 .316406-.023437.628906-.050781.9375-.023438.289062-.066406.574218-.113282.863281-.601562 3.457031-2.855468 6.480469-6.089843 7.988281-.007813.003906-.015625.011719-.023438.015625-1.382812.640625-2.917969 1.011719-4.542969 1.011719h-63.191406c-5.964844 0-10.816406-4.851562-10.816406-10.816406zm0 0"/><path d="m53.410156 359.5h20.816406c5.523438 0 10-4.476562 10-10s-4.476562-10-10-10h-20.816406c-5.523437 0-10 4.476562-10 10s4.476563 10 10 10zm0 0"/><path d="m43.394531 385.710938h40.851563c5.519531 0 10-4.476563 10-10 0-5.519532-4.480469-10-10-10h-40.851563c-5.519531 0-10 4.480468-10 10 0 5.523437 4.476563 10 10 10zm0 0"/><path d="m53.410156 392.652344c-5.523437 0-10 4.476562-10 10 0 5.523437 4.476563 10 10 10h20.816406c5.523438 0 10-4.476563 10-10 0-5.523438-4.476562-10-10-10zm0 0"/><path d="m63.820312 427.605469c-15.546874 0-28.191406 12.644531-28.191406 28.191406s12.644532 28.191406 28.191406 28.191406c15.542969 0 28.191407-12.644531 28.191407-28.191406s-12.648438-28.191406-28.191407-28.191406zm0 36.382812c-4.519531 0-8.191406-3.671875-8.191406-8.191406 0-4.515625 3.671875-8.191406 8.191406-8.191406 4.515626 0 8.191407 3.675781 8.191407 8.191406 0 4.519531-3.675781 8.191406-8.191407 8.191406zm0 0"/><path d="m338.714844 361.59375h-40.925782c-5.523437 0-10 4.476562-10 10v26.628906c0 16.324219 13.28125 29.605469 29.605469 29.605469h1.714844c16.324219 0 29.605469-13.28125 29.605469-29.605469v-26.628906c0-5.523438-4.476563-10-10-10zm-10 36.628906c0 5.296875-4.308594 9.605469-9.605469 9.605469h-1.714844c-5.296875 0-9.605469-4.308594-9.605469-9.605469v-16.628906h20.925782zm0 0"/><path d="m298.371094 354.574219h39.761718c5.519532 0 10-4.476563 10-10 0-5.523438-4.480468-10-10-10h-39.761718c-5.519532 0-10 4.476562-10 10 0 5.523437 4.480468 10 10 10zm0 0"/><path d="m371.03125 357.984375c-5.523438 0-10 4.480469-10 10v134.015625c0 5.523438 4.476562 10 10 10 5.519531 0 10-4.476562 10-10v-134.015625c0-5.519531-4.480469-10-10-10zm0 0"/><path d="m166.78125 357.984375c-5.519531 0-10 4.480469-10 10v134.015625c0 5.523438 4.480469 10 10 10 5.523438 0 10-4.476562 10-10v-134.015625c0-5.519531-4.476562-10-10-10zm0 0"/><path d="m135.667969 263.25c-1.605469-3.851562-5.558594-6.382812-9.734375-6.152344-4.058594.222656-7.65625 2.917969-8.964844 6.769532-1.355469 3.980468 0 8.539062 3.335938 11.113281 3.289062 2.539062 7.871093 2.757812 11.40625.585937 4.128906-2.539062 5.789062-7.855468 3.957031-12.316406zm0 0"/></svg>