<svg width="178" height="178" viewBox="0 0 178 178" fill="none" xmlns="http://www.w3.org/2000/svg">
<g clip-path="url(#clip0_1216_623)">
<rect width="178" height="178" fill="white"/>
<path d="M89 3.47665C135.082 3.47665 174.523 42.918 174.523 89.0001C174.523 135.082 135.082 174.524 89 174.524C72.6045 174.524 55.2746 169.726 42.376 161.556L3.47656 174.524L16.4444 135.624C8.27449 122.727 3.47656 105.396 3.47656 89.0001C3.47656 42.918 42.9179 3.47665 89 3.47665Z" fill="#9283EA"/>
<path d="M106.383 123.766V137.672H71.6171V123.766H78.5702V89H71.6171V75.0938H99.4296V123.766H106.383Z" fill="white"/>
<path d="M99.4296 50.7579C99.4296 56.5186 94.7607 61.1876 88.9999 61.1876C83.2405 61.1876 78.5702 56.5186 78.5702 50.7579C78.5702 44.9985 83.2405 40.3282 88.9999 40.3282C94.7607 40.3282 99.4296 44.9985 99.4296 50.7579Z" fill="white"/>
<path d="M143.234 47.2813C143.234 49.2002 144.792 50.7579 146.711 50.7579C148.63 50.7579 150.187 49.2002 150.187 47.2813C150.187 45.3624 148.63 43.8047 146.711 43.8047C144.792 43.8047 143.234 45.3624 143.234 47.2813Z" fill="black"/>
<path d="M157.14 89C157.14 93.453 156.694 97.8979 155.814 102.211C155.429 104.092 156.643 105.928 158.524 106.312C158.759 106.361 158.993 106.384 159.224 106.384C160.841 106.384 162.29 105.248 162.627 103.602C163.601 98.8308 164.094 93.9188 164.094 89C164.094 78.0529 161.72 67.5187 157.036 57.6893C156.21 55.9564 154.136 55.2203 152.402 56.046C150.668 56.8717 149.933 58.9468 150.759 60.681C154.993 69.568 157.14 79.0959 157.14 89V89Z" fill="black"/>
<path d="M106.383 120.289H102.906V75.0938C102.906 73.1735 101.35 71.6172 99.4296 71.6172H71.6171C69.6968 71.6172 68.1405 73.1735 68.1405 75.0938V89C68.1405 90.9203 69.6968 92.4766 71.6171 92.4766H75.0936V120.289H71.6171C69.6968 120.289 68.1405 121.845 68.1405 123.766V137.672C68.1405 139.592 69.6968 141.148 71.6171 141.148H106.383C108.303 141.148 109.859 139.592 109.859 137.672V123.766C109.859 121.845 108.303 120.289 106.383 120.289ZM102.906 134.195H75.0936V127.242H78.5702C80.4905 127.242 82.0468 125.686 82.0468 123.766V89C82.0468 87.0798 80.4905 85.5235 78.5702 85.5235H75.0936V78.5703H95.953V123.766C95.953 125.686 97.5107 127.242 99.4296 127.242H102.906V134.195Z" fill="black"/>
<path d="M88.9999 64.6641C96.6673 64.6641 102.906 58.4253 102.906 50.7579C102.906 43.0904 96.6673 36.8516 88.9999 36.8516C81.3324 36.8516 75.0936 43.0904 75.0936 50.7579C75.0936 58.4253 81.3324 64.6641 88.9999 64.6641ZM88.9999 43.8047C92.8336 43.8047 95.953 46.9241 95.953 50.7579C95.953 54.5916 92.8336 57.711 88.9999 57.711C85.1662 57.711 82.0468 54.5916 82.0468 50.7579C82.0468 46.9241 85.1662 43.8047 88.9999 43.8047Z" fill="black"/>
<path d="M89 6.10352e-05C41.0316 6.10352e-05 2.95354e-05 40.9542 2.95354e-05 89.0001C2.95354e-05 105.412 4.70289 122.865 12.6324 136.067L0.177932 173.425C-0.237626 174.673 0.0869436 176.051 1.01855 176.982C1.95424 177.917 3.334 178.236 4.5766 177.821L41.9347 165.368C55.1348 173.299 72.5882 178 89 178C136.981 178 178 137.04 178 89.0001C178 41.0194 137.042 6.10352e-05 89 6.10352e-05V6.10352e-05ZM89 171.047C73.2564 171.047 56.5227 166.401 44.2366 158.62C43.3661 158.068 42.281 157.923 41.2761 158.258L8.97391 169.026L19.7417 136.724C20.0731 135.733 19.94 134.646 19.3805 133.764C11.599 121.479 6.95315 104.744 6.95315 89.0001C6.95315 44.5259 44.5258 6.95319 89 6.95319C133.474 6.95319 171.047 44.5259 171.047 89.0001C171.047 133.474 133.474 171.047 89 171.047Z" fill="black"/>
</g>
<defs>
<clipPath id="clip0_1216_623">
<rect width="178" height="178" fill="white"/>
</clipPath>
</defs>
</svg>
