<svg width="146" height="146" viewBox="0 0 146 146" fill="none" xmlns="http://www.w3.org/2000/svg">
<g filter="url(#filter0_d)">
<circle cx="72.7143" cy="72.7143" r="60.7143" fill="black"/>
<circle cx="72.7143" cy="72.7143" r="58.7143" stroke="white" stroke-width="4"/>
</g>
<path d="M40.5195 106.867C36.3711 105.695 33.2422 103.762 31.1328 101.066C29.0469 98.3945 28.0039 94.8555 28.0039 90.4492V83.4531C28.0039 77.7578 25.5195 74.9102 20.5508 74.9102V69.8125C25.5195 69.8125 28.0039 66.9766 28.0039 61.3047V53.9922C28.0508 49.7031 29.0938 46.2461 31.1328 43.6211C33.1953 40.9727 36.3242 39.0508 40.5195 37.8555L41.8555 41.8984C36.957 43.4688 34.5078 47.5586 34.5078 54.168V61.2695C34.5078 66.5898 32.5508 70.293 28.6367 72.3789C32.5508 74.4883 34.5078 78.2266 34.5078 83.5938V90.8359C34.5781 97.2812 37.0273 101.277 41.8555 102.824L40.5195 106.867Z" fill="#6B57E8"/>
<path d="M102.969 102.824C107.727 101.301 110.188 97.4219 110.352 91.1875V83.4531C110.352 78.0391 112.473 74.3477 116.715 72.3789C112.473 70.457 110.352 66.7656 110.352 61.3047V54.168C110.352 47.5586 107.902 43.4688 103.004 41.8984L104.34 37.8555C108.488 39.0273 111.605 40.9375 113.691 43.5859C115.777 46.2109 116.832 49.6914 116.855 54.0273V61.4102C116.855 67.0117 119.34 69.8125 124.309 69.8125V74.9102C119.34 74.9102 116.855 77.7578 116.855 83.4531V90.5547C116.855 94.9609 115.789 98.4883 113.656 101.137C111.547 103.785 108.441 105.695 104.34 106.867L102.969 102.824Z" fill="#6B57E8"/>
<path d="M49.665 73.5811H40.7148V83H37.9023V61.6719H51.1152V63.9863H40.7148V71.2812H49.665V73.5811ZM59.5527 61.6719H62.3799V76.7744C62.3799 78.8154 61.7646 80.4121 60.5342 81.5645C59.3135 82.7168 57.6826 83.293 55.6416 83.293C53.5225 83.293 51.8721 82.751 50.6904 81.667C49.5088 80.583 48.918 79.0645 48.918 77.1113H51.7305C51.7305 78.332 52.0625 79.2842 52.7266 79.9678C53.4004 80.6514 54.3721 80.9932 55.6416 80.9932C56.8037 80.9932 57.7412 80.627 58.4541 79.8945C59.1768 79.1621 59.543 78.1367 59.5527 76.8184V61.6719ZM70.8027 61.6719L77.7754 79.0742L84.748 61.6719H88.3955V83H85.583V74.6943L85.8467 65.7295L78.8447 83H76.6914L69.7041 65.7734L69.9824 74.6943V83H67.1699V61.6719H70.8027ZM93.3613 83V61.6719H99.3818C101.237 61.6719 102.878 62.082 104.304 62.9023C105.729 63.7227 106.828 64.8896 107.6 66.4033C108.381 67.917 108.776 69.6553 108.786 71.6182V72.9805C108.786 74.9922 108.396 76.7549 107.614 78.2686C106.843 79.7822 105.734 80.9443 104.289 81.7549C102.854 82.5654 101.179 82.9805 99.2646 83H93.3613ZM96.1738 63.9863V80.7002H99.1328C101.301 80.7002 102.985 80.0264 104.187 78.6787C105.397 77.3311 106.003 75.4121 106.003 72.9219V71.6768C106.003 69.2549 105.432 67.375 104.289 66.0371C103.156 64.6895 101.545 64.0059 99.4551 63.9863H96.1738Z" fill="white"/>
<defs>
<filter id="filter0_d" x="0" y="0" width="145.429" height="145.429" filterUnits="userSpaceOnUse" color-interpolation-filters="sRGB">
<feFlood flood-opacity="0" result="BackgroundImageFix"/>
<feColorMatrix in="SourceAlpha" type="matrix" values="0 0 0 0 0 0 0 0 0 0 0 0 0 0 0 0 0 0 127 0"/>
<feMorphology radius="4" operator="dilate" in="SourceAlpha" result="effect1_dropShadow"/>
<feOffset/>
<feGaussianBlur stdDeviation="4"/>
<feColorMatrix type="matrix" values="0 0 0 0 0 0 0 0 0 0 0 0 0 0 0 0 0 0 0.25 0"/>
<feBlend mode="normal" in2="BackgroundImageFix" result="effect1_dropShadow"/>
<feBlend mode="normal" in="SourceGraphic" in2="effect1_dropShadow" result="shape"/>
</filter>
</defs>
</svg>
