<svg id="Layer_1" enable-background="new 0 0 512 512" height="512" viewBox="0 0 512 512" width="512" xmlns="http://www.w3.org/2000/svg"><g id="XMLID_1765_"><circle id="XMLID_1764_" cx="256" cy="256" fill="#fff" r="246"/><path id="XMLID_1671_" d="m373.292 264.403c-9.557-9.567-25.107-9.423-34.486.319l-23.03 23.921v-133.695c0-10.327-8.372-18.698-18.698-18.698-10.327 0-18.698 8.372-18.698 18.698v-20.894c0-10.327-8.372-18.699-18.698-18.699-10.327 0-18.698 8.372-18.698 18.699v22.696c0-10.327-8.372-18.699-18.698-18.699s-18.698 8.372-18.698 18.699v29.605c0-10.327-8.372-18.698-18.698-18.698-10.327 0-18.698 8.372-18.698 18.698v139.269c0 39.931 32.37 72.301 72.301 72.301h29.244c23.885 0 46.228-11.796 59.701-31.518l48.715-71.312c6.544-9.587 5.345-22.478-2.861-30.692z" fill="#ffda8f"/><path id="XMLID_2668_" d="m256 502c135.862 0 246-110.138 246-246s-110.138-246-246-246-246 110.138-246 246 110.138 246 246 246zm198-246c0 109.178-88.822 198-198 198-45.959 0-88.308-15.742-121.946-42.113l277.832-277.832c26.372 33.637 42.114 75.987 42.114 121.945zm-198-198c45.959 0 88.308 15.742 121.946 42.113l-277.833 277.833c-26.371-33.638-42.113-75.988-42.113-121.946 0-109.178 88.822-198 198-198z" fill="#ff7d97"/><g id="XMLID_1358_"><path id="XMLID_1359_" d="m437.019 74.98c-48.352-48.351-112.639-74.98-181.019-74.98-51.345 0-100.879 15.146-143.247 43.8-4.575 3.094-5.775 9.311-2.681 13.886 3.093 4.574 9.31 5.773 13.885 2.681 39.047-26.409 84.707-40.367 132.043-40.367 130.131 0 236 105.869 236 236s-105.869 236-236 236-236-105.869-236-236c0-48.858 14.795-95.731 42.787-135.552 3.176-4.519 2.088-10.756-2.43-13.932-4.519-3.177-10.755-2.089-13.932 2.43-30.372 43.206-46.425 94.057-46.425 147.054 0 68.38 26.628 132.667 74.981 181.02 48.352 48.351 112.639 74.98 181.019 74.98s132.667-26.629 181.02-74.98c48.352-48.353 74.98-112.64 74.98-181.02s-26.628-132.667-74.981-181.02z"/><path id="XMLID_1364_" d="m384.115 92.243c-36.918-28.944-81.219-44.243-128.115-44.243-114.691 0-208 93.309-208 208 0 46.896 15.299 91.197 44.244 128.115 1.766 2.252 4.411 3.64 7.268 3.812.201.013.402.019.603.019 2.644 0 5.19-1.048 7.071-2.929l277.832-277.832c2.023-2.023 3.083-4.817 2.911-7.673-.174-2.857-1.562-5.503-3.814-7.269zm-133.133 41.812c0-4.796 3.902-8.698 8.698-8.698s8.699 3.902 8.699 8.698v61.483l-17.397 17.397zm46.095 12.195c4.796 0 8.699 3.902 8.699 8.698v3.192l-17.397 17.397v-20.589c0-4.796 3.902-8.698 8.698-8.698zm-66.095 86.685-17.397 17.396v-93.58c0-4.796 3.902-8.698 8.698-8.698s8.699 3.902 8.699 8.698zm-37.397 37.396-17.397 17.397v-101.372c0-4.796 3.902-8.698 8.698-8.698s8.699 3.902 8.699 8.698zm128.834-128.833c-4.83-9.063-14.375-15.248-25.341-15.248-3.286 0-6.442.563-9.385 1.584-2.85-12.842-14.324-22.478-28.012-22.478-14.283 0-26.16 10.49-28.338 24.17-2.85-.951-5.894-1.474-9.059-1.474-15.824 0-28.698 12.874-28.698 28.698v2.259c-2.745-.875-5.667-1.352-8.699-1.352-15.824 0-28.698 12.874-28.698 28.698v121.372l-54.931 54.931c-21.798-31.431-33.258-68.072-33.258-106.658 0-103.663 84.336-188 188-188 38.586 0 75.227 11.46 106.66 33.257z"/><path id="XMLID_1373_" d="m124.073 412.488c.172 2.856 1.56 5.503 3.812 7.269 36.918 28.944 81.219 44.243 128.115 44.243 114.691 0 208-93.309 208-208 0-46.896-15.299-91.197-44.244-128.115-1.766-2.252-4.411-3.64-7.268-3.812-2.857-.184-5.65.887-7.673 2.91l-277.832 277.832c-2.023 2.024-3.083 4.818-2.91 7.673zm187.964-114.571c3.784 1.528 8.113.6 10.943-2.339l23.03-23.921c2.658-2.761 6.232-4.301 10.064-4.336 3.849-.074 7.435 1.438 10.144 4.149 4.803 4.809 5.507 12.372 1.673 17.984l-48.715 71.313c-11.617 17.006-30.848 27.158-51.443 27.158h-29.244c-17.558 0-34.283-7.483-46.019-20.312l113.306-113.306v34.334c0 4.081 2.477 7.751 6.261 9.276zm-133.715 83.845c15.465 16.537 37.276 26.164 60.167 26.164h29.244c27.207 0 52.611-13.412 67.958-35.877l48.715-71.313c9.252-13.544 7.554-31.797-4.039-43.4-6.537-6.543-15.238-10.072-24.478-10.014-9.248.085-17.874 3.802-24.288 10.464l-5.826 6.051v-29.529l84.967-84.967c21.798 31.432 33.258 68.073 33.258 106.659 0 103.663-84.336 188-188 188-38.586 0-75.227-11.46-106.66-33.257z"/><path id="XMLID_1377_" d="m83.73 90.399c2.63 0 5.2-1.069 7.07-2.93 1.86-1.87 2.93-4.45 2.93-7.07 0-2.64-1.07-5.21-2.93-7.08-1.86-1.859-4.44-2.92-7.07-2.92-2.64 0-5.22 1.061-7.07 2.92-1.87 1.87-2.93 4.44-2.93 7.08 0 2.63 1.06 5.2 2.93 7.07 1.86 1.861 4.44 2.93 7.07 2.93z"/></g></g></svg>