<svg id="Capa_1" enable-background="new 0 0 512 512" height="512" viewBox="0 0 512 512" width="512" xmlns="http://www.w3.org/2000/svg"><g><g><path d="m454.55 54.94v180.43c0 17.61-14.28 31.89-31.9 31.89h-106.79c-17.61 0-31.89-14.28-31.89-31.89v-180.43l86.699-4.607z" fill="#ddeafb"/><path d="m454.55 54.94v180.43c0 17.61-14.28 31.89-31.9 31.89h-22c17.62 0 31.9-14.28 31.9-31.89v-180.43l10.25-7.117z" fill="#cbe2ff"/><path d="m454.55 39.39v15.55h-170.58v-15.55c0-17.61 14.28-31.89 31.89-31.89h106.79c17.62 0 31.9 14.28 31.9 31.89z" fill="#528fd8"/><g fill="#0473ce"><path d="m454.55 39.39v15.55h-22v-15.55c0-17.61-14.28-31.89-31.9-31.89h22c17.62 0 31.9 14.28 31.9 31.89z"/><path d="m314.133 87.362h29.654v29.654h-29.654z"/><path d="m314.133 149.438h29.654v29.654h-29.654z"/></g><path d="m228.03 24.01v74.1l-17.893 29.212-28.697 19.908h-76.63c-9.12 0-16.51-7.39-16.51-16.51v-106.71c0-9.12 7.39-16.51 16.51-16.51h106.72c9.11 0 16.5 7.39 16.5 16.51z" fill="#fff9df"/><path d="m228.03 24.01v74.1l-17.893 29.212-9.027-.832v-102.48c0-9.12-7.39-16.51-16.5-16.51h26.92c9.11 0 16.5 7.39 16.5 16.51z" fill="#fff0ad"/><path d="m228.03 98.11v32.61c0 9.12-7.39 16.51-16.5 16.51h-30.09l19.67-20.74z" fill="#ffc344"/><path d="m191.82 422.23c-1.78 3.66-2.7 7.67-2.7 11.74v21.9l-59.605 7.13-59.605-7.13v-41.18c0-9.73-3.07-19.21-8.78-27.09l-13.46-18.58c-13.05-18.01-20.07-39.67-20.07-61.91v-95.48c0-6.35 3.04-12.15 7.74-15.83 3.34-2.6 7.5-4.14 12.01-4.06 10.53.2 19 8.8 19 19.38l10.1 89.88c2.37 21.03 18.86 37.35 39.35 39.95-3.01-4.35-4.65-9.54-4.65-14.9v-51.74c0-4.15 1.55-8.01 4.14-10.93 2.67-3.03 6.45-5.03 10.74-5.28 4.24-.25 8.21 1.19 11.22 3.77 2.77 2.37 4.73 5.7 5.35 9.56l4.9 31.08c.97 6.13 3.85 11.8 8.25 16.2l22.97 22.96c.64.65 1.27 1.3 1.89 1.96 19.78 21.13 23.87 52.57 11.21 78.6z" fill="#ffcebf"/><path d="m115.8 340.95c-37.8 0-60.48-18.92-62.85-39.95l-10.1-89.88c0-6.23-2.94-11.78-7.51-15.32 3.34-2.6 7.5-4.14 12.01-4.06 10.53.2 19 8.8 19 19.38l10.1 89.88c2.37 21.03 18.86 37.35 39.35 39.95z" fill="#ffb09e"/><path d="m191.82 422.23c-1.78 3.66-2.7 7.67-2.7 11.74v21.9l-11.54 5.13-11.96-5.13v-21.9c0-4.07.92-8.08 2.7-11.74 12.66-26.03 8.57-57.47-11.21-78.6-.62-.66-1.25-1.31-1.89-1.96l-22.97-22.96c-4.4-4.4-7.28-10.07-8.25-16.2l-4.9-31.08c-.5-3.1-1.86-5.86-3.81-8.05 2.67-3.03 6.45-5.03 10.74-5.28 4.24-.25 8.21 1.19 11.22 3.77 2.77 2.37 4.73 5.7 5.35 9.56l4.9 31.08c.97 6.13 3.85 11.8 8.25 16.2l22.97 22.96c.64.65 1.27 1.3 1.89 1.96 19.78 21.13 23.87 52.57 11.21 78.6z" fill="#ffb09e"/><path d="m484.4 211.63v95.48c0 22.24-7.02 43.9-20.07 61.91l-13.46 18.58c-5.71 7.88-8.78 17.36-8.78 27.09v41.18l-59.605 7.13-59.605-7.13v-21.9c0-4.07-.92-8.08-2.7-11.74-12.66-26.03-8.57-57.47 11.21-78.6.62-.66 1.25-1.31 1.89-1.96l22.97-22.96c4.4-4.4 7.28-10.07 8.25-16.2l4.9-31.08c.62-3.86 2.58-7.19 5.35-9.56 3.01-2.58 6.98-4.02 11.22-3.77 8.43.49 14.88 7.76 14.88 16.21v51.74c0 5.36-1.64 10.55-4.65 14.9 20.49-2.6 36.98-18.92 39.35-39.95l10.1-89.88c0-6.3 3.01-11.91 7.67-15.44 3.16-2.41 7.07-3.86 11.33-3.94 10.87-.2 19.75 9.03 19.75 19.89z" fill="#ffcebf"/><path d="m484.4 211.63v95.48c0 22.24-7.02 43.9-20.07 61.91l-13.46 18.58c-5.71 7.88-8.78 17.36-8.78 27.09v41.18l-11.04 7.13-12.14-7.13v-41.18c0-9.73 3.07-19.21 8.78-27.09l13.46-18.58c13.05-18.01 20.07-39.67 20.07-61.91v-95.48c0-6.42-3.11-12.28-7.9-15.95 3.16-2.41 7.07-3.86 11.33-3.94 10.87-.2 19.75 9.03 19.75 19.89z" fill="#ffb09e"/><path d="m57.45 455.87h144.13v48.63h-144.13z" fill="#ddeafb"/><path d="m177.58 455.87h24v48.63h-24z" fill="#cbe2ff"/><path d="m310.42 455.87h144.13v48.63h-144.13z" fill="#ddeafb"/><path d="m431.05 455.87h23.5v48.63h-23.5z" fill="#cbe2ff"/><path d="m330.491 280.23v-10.386c0-4.229-2.83-7.935-6.909-9.049l-8.258-2.255c-2.794-.763-5.076-2.776-6.185-5.452-.012-.028-.023-.056-.035-.084-1.116-2.682-.931-5.726.51-8.248l4.245-7.434c2.097-3.673 1.477-8.294-1.513-11.284l-7.344-7.344c-2.99-2.99-7.612-3.61-11.285-1.513l-7.434 4.245c-2.522 1.44-5.567 1.626-8.249.51-.028-.012-.056-.023-.084-.035-2.676-1.109-4.689-3.39-5.452-6.185l-2.255-8.258c-1.114-4.08-4.82-6.909-9.049-6.909h-10.386c-4.229 0-7.935 2.83-9.049 6.909l-2.255 8.258c-.763 2.794-2.776 5.076-5.452 6.185-.028.012-.056.023-.083.035-2.682 1.116-5.726.931-8.248-.51l-7.434-4.245c-3.673-2.097-8.294-1.477-11.284 1.513l-7.344 7.344c-2.99 2.99-3.61 7.612-1.513 11.284l4.245 7.434c1.44 2.522 1.625 5.567.51 8.248-.012.028-.023.056-.035.084-1.109 2.676-3.39 4.689-6.185 5.452l-8.258 2.255c-4.08 1.114-6.909 4.82-6.909 9.049v10.386c0 4.229 2.83 7.935 6.909 9.049l8.258 2.255c2.794.763 5.076 2.776 6.185 5.452.012.028.023.056.035.084 1.116 2.682.931 5.726-.51 8.248l-4.245 7.434c-2.097 3.673-1.477 8.294 1.513 11.284l7.344 7.344c2.99 2.99 7.612 3.61 11.284 1.513l7.434-4.245c2.522-1.44 5.567-1.625 8.248-.51.028.012.056.023.083.035 2.676 1.109 4.689 3.39 5.452 6.185l2.255 8.258c1.114 4.08 4.82 6.909 9.049 6.909h10.386c4.229 0 7.935-2.83 9.049-6.909l2.255-8.258c.763-2.794 2.776-5.076 5.452-6.185.028-.012.056-.023.084-.035 2.682-1.116 5.726-.931 8.248.51l7.434 4.245c3.673 2.097 8.294 1.477 11.284-1.513l7.344-7.344c2.99-2.99 3.61-7.612 1.513-11.284l-4.245-7.434c-1.44-2.522-1.625-5.567-.51-8.249.012-.028.023-.056.035-.084 1.109-2.676 3.39-4.689 6.185-5.452l8.258-2.255c4.081-1.113 6.911-4.819 6.911-9.048z" fill="#cbe2ff"/><path d="m283.97 275.04c0 15.44-12.52 27.96-27.97 27.96-3.9 0-7.62-.8-11-2.25-9.98-4.27-16.97-14.17-16.97-25.71s6.99-21.45 16.97-25.72c3.38-1.45 7.1-2.25 11-2.25 15.45 0 27.97 12.52 27.97 27.97z" fill="#5a5a5a"/><path d="m283.97 275.04c0 15.44-12.52 27.96-27.97 27.96-3.9 0-7.62-.8-11-2.25 9.98-4.27 16.97-14.17 16.97-25.71s-6.99-21.45-16.97-25.72c3.38-1.45 7.1-2.25 11-2.25 15.45 0 27.97 12.52 27.97 27.97z" fill="#444"/></g><g><path d="m201.575 448.367h-4.955c0-6.954-1.212-16.36 1.947-22.856 8.386-17.254 10.247-36.856 5.241-55.196-1.09-3.995-5.217-6.354-9.21-5.261-3.996 1.091-6.352 5.214-5.261 9.21 4.049 14.834 2.535 30.705-4.261 44.689-4.431 9.115-3.456 19.596-3.456 29.414h-104.21v-33.675c0-20.185-12.523-34.689-23.667-50.078-12.196-16.831-18.643-36.716-18.643-57.506v-95.475c0-16.26 22.043-15.255 23.799.326l10.095 89.881c2.623 23.252 19.965 41.753 42.669 46.035.596.701 19.537 19.715 19.537 19.715 1.464 1.466 3.384 2.198 5.304 2.198 1.919 0 3.838-.732 5.302-2.195 2.93-2.929 2.931-7.678.002-10.606 0 0-19.173-19.342-19.807-20.253-2.149-3.126-3.347-6.882-3.347-10.683v-51.745c0-10.122 14.921-11.824 16.537-1.71l4.9 31.084c1.229 7.753 4.812 14.784 10.36 20.333l22.964 22.964c2.929 2.928 7.678 2.928 10.606 0 2.929-2.93 2.929-7.678 0-10.607l-22.964-22.963c-3.294-3.295-5.422-7.471-6.151-12.069l-4.902-31.094c-.877-5.483-3.676-10.482-7.88-14.075-4.602-3.936-10.477-5.909-16.534-5.557-12.301.716-21.937 11.123-21.937 23.694v51.745.002.001c0 1.139.057 2.269.167 3.387-10.831-5.71-18.48-16.495-19.922-29.278l-10.052-89.494c-.586-34.577-53.748-33.669-53.748.965v95.475c0 23.972 7.434 46.9 21.496 66.306 9.016 12.45 20.815 24.944 20.815 41.278v33.675h-4.955c-4.142 0-7.5 3.357-7.5 7.5v48.632c0 4.143 3.358 7.5 7.5 7.5h144.12c4.142 0 7.5-3.357 7.5-7.5v-48.633c.001-4.142-3.357-7.5-7.499-7.5zm-7.5 48.633h-129.12v-33.633h129.12z"/><path d="m483.602 191.932c-5.686-5.581-13.635-8.413-21.557-7.524v-145.017c0-21.72-17.671-39.391-39.391-39.391h-106.796c-21.72 0-39.391 17.671-39.391 39.391v65.799c0 4.143 3.358 7.5 7.5 7.5s7.5-3.357 7.5-7.5v-42.75h155.578v128.776c-5.347 4.844-8.762 11.787-8.892 19.453l-5.261 46.842c-8.512 3.94-20.366 2.249-29.436 2.249-9.034-11.86-27.828-11.964-36.945 0h-31.884c-2.199-2.947-5.347-5.184-9.071-6.201l-8.259-2.255c-1.173-.32-1.777-1.771-1.171-2.83l4.244-7.434c3.764-6.591 2.644-14.941-2.723-20.308l-7.343-7.343c-4.974-4.975-12.512-6.294-18.838-3.461v-68.928c0-4.143-3.358-7.5-7.5-7.5s-7.5 3.357-7.5 7.5v61.75c-2.745-5.83-8.669-9.703-15.273-9.703h-10.387c-7.589 0-14.285 5.112-16.285 12.434l-2.255 8.258c-.32 1.176-1.773 1.775-2.83 1.173l-7.435-4.246c-6.59-3.763-14.941-2.641-20.306 2.724l-7.344 7.344c-5.367 5.366-6.487 13.717-2.724 20.307l4.245 7.435c.601 1.053.013 2.507-1.172 2.83l-8.259 2.255c-7.321 2-12.434 8.696-12.434 16.285v10.387c0 7.588 5.113 14.284 12.434 16.284l8.256 2.254c1.174.321 1.78 1.771 1.174 2.831l-4.245 7.435c-3.763 6.591-2.643 14.94 2.723 20.306l7.344 7.346c5.366 5.367 13.718 6.485 20.306 2.723l7.436-4.245c1.055-.603 2.509-.005 2.83 1.172l2.255 8.26c2 7.32 8.696 12.433 16.284 12.433h10.387c7.588 0 14.285-5.112 16.285-12.434l2.254-8.258c.321-1.176 1.77-1.776 2.831-1.172l7.433 4.243c6.592 3.766 14.942 2.646 20.308-2.723l7.343-7.344c5.367-5.366 6.487-13.716 2.724-20.307l-4.245-7.435c-.604-1.059 0-2.51 1.172-2.83l8.259-2.255c7.321-2 12.434-8.696 12.434-16.284v-5.471h23.293l-4.188 26.571c-2.338 14.739-21.602 26.936-31.178 37.17-21.564 23.04-26.582 58.007-12.485 87.01 2.397 7.578 1.947 15.021 1.947 22.856h-4.955c-4.142 0-7.5 3.357-7.5 7.5v48.631c0 4.143 3.358 7.5 7.5 7.5h28.577c4.142 0 7.5-3.357 7.5-7.5s-3.358-7.5-7.5-7.5h-21.075v-33.633h129.12v33.633h-73.549c-4.142 0-7.5 3.357-7.5 7.5s3.358 7.5 7.5 7.5h81.049c4.142 0 7.5-3.357 7.5-7.5v-48.633c0-4.143-3.358-7.5-7.5-7.5h-4.955v-33.675c0-16.273 11.81-28.844 20.814-41.277 14.063-19.406 21.497-42.335 21.497-66.307v-95.475c0-7.343-3.025-14.524-8.299-19.701zm-192.135-144.493v-8.049c0-13.449 10.942-24.391 24.391-24.391h106.796c13.449 0 24.391 10.941 24.391 24.391v8.049zm139.588 226.42-2.954 26.3c-1.442 12.788-9.092 23.573-19.922 29.283.111-1.118.168-2.249.168-3.387v-.001-.002-51.292c7.352 0 15.469.673 22.708-.901zm-108.064 6.371c0 .845-.57 1.591-1.385 1.813l-8.26 2.256c-10.496 2.869-15.641 15.289-10.245 24.737l4.245 7.435c.419.734.295 1.664-.304 2.263l-7.344 7.344c-.598.599-1.527.725-2.263.303l-7.433-4.243c-9.37-5.351-21.899-.15-24.739 10.246l-2.254 8.258c-.223.816-.969 1.386-1.814 1.386h-10.387c-.845 0-1.592-.569-1.814-1.385l-2.255-8.26c-2.842-10.403-15.304-15.63-24.737-10.246l-7.436 4.245c-.734.42-1.663.294-2.261-.303l-7.345-7.346c-.598-.598-.722-1.527-.303-2.262l4.244-7.435c5.351-9.369.162-21.892-10.247-24.738l-8.258-2.255c-.816-.223-1.386-.969-1.386-1.813v-10.387c0-.846.57-1.592 1.385-1.814l8.258-2.255c10.483-2.861 15.641-15.293 10.248-24.738l-4.245-7.436c-.419-.733-.294-1.663.304-2.261l7.345-7.345c.598-.598 1.528-.72 2.261-.304l7.434 4.245c9.451 5.4 21.874.246 24.738-10.247l2.255-8.258c.223-.815.969-1.385 1.814-1.385h10.387c.846 0 1.592.569 1.814 1.385l2.255 8.259c2.786 10.199 15.591 15.472 24.738 10.246l7.433-4.244c.734-.419 1.665-.295 2.263.304l7.345 7.344c.598.598.722 1.527.303 2.262l-4.244 7.435c-5.388 9.435-.228 21.878 10.247 24.738l8.258 2.255c.816.223 1.386.969 1.386 1.814v10.387zm153.91 26.878c0 20.79-6.447 40.675-18.644 57.507-11.119 15.354-23.667 29.948-23.667 50.077v33.675h-104.211c0-9.867 1.005-20.238-3.456-29.413-11.4-23.455-7.404-51.667 9.944-70.202 12.322-13.146 32.033-26.102 35.043-45.078l4.896-31.061c1.618-10.122 16.54-8.442 16.54 1.693v51.745c0 4.923-2.007 9.78-5.492 13.266l-17.663 17.67c-2.929 2.929-2.928 7.678.002 10.606 1.464 1.464 3.383 2.195 5.302 2.195 1.92 0 3.84-.732 5.304-2.198 0 0 18.941-19.014 19.537-19.715 22.704-4.282 40.047-22.783 42.67-46.039l4.343-38.669c.011-.083.02-.165.028-.248l5.724-50.96c1.77-15.71 23.799-16.796 23.799-.326v95.475z"/><path d="m256 239.57c-19.557 0-35.467 15.91-35.467 35.467s15.91 35.467 35.467 35.467 35.467-15.91 35.467-35.467-15.91-35.467-35.467-35.467zm0 55.934c-11.286 0-20.467-9.182-20.467-20.467s9.181-20.467 20.467-20.467 20.467 9.182 20.467 20.467-9.181 20.467-20.467 20.467z"/><path d="m314.133 124.516h29.654c4.142 0 7.5-3.357 7.5-7.5v-29.655c0-4.143-3.358-7.5-7.5-7.5h-29.654c-4.142 0-7.5 3.357-7.5 7.5v29.654c0 4.143 3.358 7.501 7.5 7.501zm7.5-29.655h14.654v14.654h-14.654z"/><path d="m306.633 179.093c0 4.143 3.358 7.5 7.5 7.5h29.654c4.142 0 7.5-3.357 7.5-7.5v-29.654c0-4.143-3.358-7.5-7.5-7.5h-29.654c-4.142 0-7.5 3.357-7.5 7.5zm15-22.155h14.654v14.654h-14.654z"/><path d="m372.815 109.688h50.041c4.142 0 7.5-3.357 7.5-7.5s-3.358-7.5-7.5-7.5h-50.041c-4.142 0-7.5 3.357-7.5 7.5s3.358 7.5 7.5 7.5z"/><path d="m372.815 156.938h50.041c4.142 0 7.5-3.357 7.5-7.5s-3.358-7.5-7.5-7.5h-50.041c-4.142 0-7.5 3.357-7.5 7.5s3.358 7.5 7.5 7.5z"/><path d="m372.815 186.593h28.032c4.142 0 7.5-3.357 7.5-7.5s-3.358-7.5-7.5-7.5h-28.032c-4.142 0-7.5 3.357-7.5 7.5s3.358 7.5 7.5 7.5z"/><path d="m104.81 154.729h106.716c13.237 0 24.007-10.77 24.007-24.007v-106.715c0-13.237-10.769-24.007-24.007-24.007h-106.716c-13.237 0-24.007 10.77-24.007 24.007v106.716c0 13.237 10.77 24.006 24.007 24.006zm106.716-15h-12.634l21.641-22.814v13.807c0 4.967-4.04 9.007-9.007 9.007zm-115.723-115.722c0-4.967 4.041-9.007 9.007-9.007h106.716c4.966 0 9.007 4.04 9.007 9.007v71.113l-42.315 44.609h-73.408c-4.966 0-9.007-4.04-9.007-9.007z"/><path d="m125.888 55.322h64.56c4.142 0 7.5-3.357 7.5-7.5s-3.358-7.5-7.5-7.5h-64.56c-4.142 0-7.5 3.357-7.5 7.5s3.358 7.5 7.5 7.5z"/><path d="m125.888 90.908h42.335c4.142 0 7.5-3.357 7.5-7.5s-3.358-7.5-7.5-7.5h-42.335c-4.142 0-7.5 3.357-7.5 7.5s3.358 7.5 7.5 7.5z"/></g></g></svg>