<svg id="color_line" height="512" viewBox="0 0 74 74" width="512" xmlns="http://www.w3.org/2000/svg" data-name="color line"><path d="m41.845 37c5.289 3.88 13.018 10.67 13.018 17.164v9.536h-35.737v-9.53c0-6.494 7.74-13.284 13.029-17.164-5.289-3.88-13.029-10.67-13.029-17.164v-9.542h35.737v9.54c0 6.492-7.729 13.283-13.018 17.16z" fill="#eeefee"/><path d="m41.84 37c5.29 3.88 13.02 10.67 13.02 17.17v9.53h-3v-9.53c0-6.5-7.73-13.29-13.02-17.17 5.29-3.88 13.02-10.67 13.02-17.16v-9.54h3v9.54c0 6.49-7.73 13.28-13.02 17.16z" fill="#e1e6e9"/><path d="m26.23 21.237v.5c0 5.946 10.77 12.306 10.77 12.306s10.77-6.36 10.77-12.308v-.5z" fill="#fe7058"/><path d="m37 34.543a.5.5 0 0 1 -.254-.069c-.446-.266-11.016-6.574-11.016-12.739v-.5a.5.5 0 0 1 .5-.5h21.54a.5.5 0 0 1 .5.5v.5c0 6.162-10.565 12.473-11.016 12.739a.5.5 0 0 1 -.254.069zm-10.27-12.806c0 5.1 8.662 10.721 10.27 11.72 1.607-1 10.268-6.62 10.27-11.72z" fill="#323c6b"/><path d="m59.333 6.65a3.771 3.771 0 0 1 -3.882 3.65h-36.9a3.771 3.771 0 0 1 -3.882-3.65 3.771 3.771 0 0 1 3.879-3.65h36.9a3.771 3.771 0 0 1 3.885 3.65z" fill="#9297ab"/><path d="m59.333 67.35a3.771 3.771 0 0 1 -3.881 3.65h-36.9a3.771 3.771 0 0 1 -3.882-3.65 3.771 3.771 0 0 1 3.882-3.65h36.9a3.771 3.771 0 0 1 3.881 3.65z" fill="#9297ab"/><path d="m59.33 6.65a3.763 3.763 0 0 1 -3.88 3.65h-3.31a3.769 3.769 0 0 0 3.88-3.65 3.769 3.769 0 0 0 -3.88-3.65h3.31a3.763 3.763 0 0 1 3.88 3.65z" fill="#84879c"/><path d="m59.33 67.35a3.763 3.763 0 0 1 -3.88 3.65h-3.31a3.657 3.657 0 1 0 0-7.3h3.31a3.763 3.763 0 0 1 3.88 3.65z" fill="#84879c"/><path d="m23 63.7h28v-2.847c0-7.734-14-16-14-16s-14 8.27-14 16z" fill="#fe7058"/><path d="m51 64.2h-28a.5.5 0 0 1 -.5-.5v-2.847c0-7.928 13.667-16.09 14.249-16.434a.5.5 0 0 1 .508 0c.582.344 14.249 8.506 14.249 16.434v2.847a.5.5 0 0 1 -.506.5zm-27.5-1h27v-2.347c0-6.8-11.624-14.258-13.5-15.418-1.879 1.165-13.5 8.619-13.5 15.418z" fill="#323c6b"/><path d="m18.022 26.563c.08.147.175.291.258.438" fill="#eeefee"/><path d="m18.28 27.5a.5.5 0 0 1 -.434-.251l-.1-.173c-.056-.091-.111-.182-.161-.274a.5.5 0 0 1 .879-.478c.042.078.089.154.136.231l.117.2a.5.5 0 0 1 -.434.749z" fill="#323c6b"/><path d="m16.126 17.167v2.672a12.788 12.788 0 0 0 .866 4.474" fill="#eeefee"/><path d="m16.992 24.813a.5.5 0 0 1 -.469-.325 13.335 13.335 0 0 1 -.9-4.649v-2.672a.5.5 0 0 1 1 0v2.672a12.345 12.345 0 0 0 .835 4.3.5.5 0 0 1 -.469.675z" fill="#323c6b"/><path d="m53.706 44c-.122-.158-.253-.312-.385-.466" fill="#eeefee"/><path d="m53.706 44.5a.5.5 0 0 1 -.4-.194c-.117-.151-.243-.3-.369-.448a.5.5 0 1 1 .76-.649c.138.16.273.321.4.485a.5.5 0 0 1 -.4.806z" fill="#323c6b"/><path d="m57.786 52.924a16.144 16.144 0 0 0 -2.557-6.757" fill="#eeefee"/><g fill="#323c6b"><path d="m57.785 53.423a.5.5 0 0 1 -.5-.445 15.669 15.669 0 0 0 -2.482-6.545.5.5 0 1 1 .846-.532 16.64 16.64 0 0 1 2.631 6.968.5.5 0 0 1 -.442.552z"/><path d="m54.863 64.2h-35.737a.5.5 0 0 1 -.5-.5v-9.53c0-6.3 6.772-12.742 12.689-17.164-5.915-4.426-12.689-10.866-12.689-17.168v-9.538a.5.5 0 0 1 .5-.5h35.737a.5.5 0 0 1 .5.5v9.54c0 6.308-6.767 12.745-12.679 17.164 5.916 4.417 12.679 10.854 12.679 17.163v9.533a.5.5 0 0 1 -.5.5zm-35.237-1h34.737v-9.03c0-6.4-8.028-13.25-12.814-16.761a.5.5 0 0 1 0-.807c4.786-3.51 12.814-10.356 12.814-16.761v-9.041h-34.737v9.04c0 6.4 8.035 13.247 12.825 16.761a.5.5 0 0 1 0 .807c-4.79 3.514-12.825 10.363-12.825 16.761z"/><path d="m55.451 10.8h-36.9a4.276 4.276 0 0 1 -4.382-4.15 4.276 4.276 0 0 1 4.38-4.15h36.9a4.276 4.276 0 0 1 4.382 4.15 4.276 4.276 0 0 1 -4.38 4.15zm-36.9-7.3a3.275 3.275 0 0 0 -3.382 3.15 3.275 3.275 0 0 0 3.38 3.15h36.9a3.275 3.275 0 0 0 3.382-3.15 3.275 3.275 0 0 0 -3.38-3.15z"/><path d="m55.451 71.5h-36.9a4.156 4.156 0 1 1 0-8.3h36.9a4.156 4.156 0 1 1 0 8.3zm-36.9-7.3a3.158 3.158 0 1 0 0 6.3h36.9a3.158 3.158 0 1 0 0-6.3z"/></g></svg>