<svg id="Capa_1" enable-background="new 0 0 512 512" height="512" viewBox="0 0 512 512" width="512" xmlns="http://www.w3.org/2000/svg"><g><g><g><path clip-rule="evenodd" d="m91.324 160.302c-34.185 2.551-36.481 49.89 2.523 49.89h56.182c4.649 0 2.353-.709 6.35 2.296l14.825 11.112-45.41 35.433c17.121.822 33.391 4.989 48.188 11.849 16.667 7.71 35.177 12.019 54.679 12.019s38.012-4.309 54.679-12.019c1.871-.879 3.77-1.701 5.726-2.495 15.08-12.671 27.325-37.843 27.807-62.334-28.147-1.389-52.213-18.142-64.062-42.01-.142-.255-.255-.51-.397-.765l-78.632-9.071z" fill="#ffd0c7" fill-rule="evenodd"/></g><g><path clip-rule="evenodd" d="m64.651 270.882c-16.639 7.71-35.149 12.019-54.651 12.019v59.982c19.502 0 38.012-4.309 54.651-12.019 16.667-7.71 35.177-11.991 54.679-11.991s38.012 4.28 54.651 11.991c16.667 7.71 35.177 12.019 54.679 12.019s38.012-4.309 54.679-12.019c16.639-7.71 35.149-11.991 54.651-11.991s38.012 4.28 54.679 11.991c16.639 7.71 35.149 12.019 54.651 12.019s38.012-4.309 54.679-12.019v-59.982c-16.667 7.71-35.177 12.019-54.679 12.019s-38.012-4.309-54.651-12.019c-15.704-7.285-33.08-11.509-51.363-11.962-1.105-.028-2.211-.057-3.316-.057-17.291 0-33.817 3.402-48.925 9.524-1.956.794-3.855 1.616-5.726 2.495-16.667 7.71-35.177 12.019-54.679 12.019s-38.012-4.309-54.679-12.019c-14.797-6.86-31.067-11.027-48.188-11.849-2.154-.113-4.309-.17-6.463-.17-19.502 0-38.012 4.309-54.679 12.019z" fill="#98eaf9" fill-rule="evenodd"/></g><g><path clip-rule="evenodd" d="m119.33 318.873c-19.502 0-38.012 4.28-54.679 11.991-16.639 7.71-35.149 12.019-54.651 12.019v60.01 54.426h492v-66.445-60.01c-16.667 7.71-35.177 12.019-54.679 12.019s-38.012-4.309-54.651-12.019c-16.667-7.71-35.177-11.991-54.679-11.991s-38.012 4.28-54.651 11.991c-16.667 7.71-35.177 12.019-54.679 12.019s-38.012-4.309-54.679-12.019c-16.64-7.711-35.15-11.991-54.652-11.991z" fill="#cbf4fb" fill-rule="evenodd"/></g><g><path clip-rule="evenodd" d="m295.897 123.791c-5.074 24.01-22.393 42.293-43.086 40.252 11.849 23.868 35.914 40.621 64.062 42.01 1.247.057 2.523.085 3.798.085 2.806 0 5.556-.142 8.249-.425 16.639-1.814 31.662-9.014 43.313-19.814 14.853-13.833 24.179-33.562 24.179-55.474-31.833-33.138-94.109-37.022-100.515-6.634z" fill="#ffdcd5" fill-rule="evenodd"/></g><g><path clip-rule="evenodd" d="m320.671 54.682c-41.81 0-75.74 33.903-75.74 75.742 0 6.661.879 13.153 2.494 19.304 1.332 4.989 3.118 9.78 5.386 14.315 20.692 2.041 38.012-16.243 43.086-40.252 6.406-30.388 68.682-26.504 100.515 6.633 26.277-16.725 42.802-79.938 13.493-70.13-28.914 9.667-54.057-5.612-89.234-5.612z" fill="#d0a084" fill-rule="evenodd"/></g><g><path clip-rule="evenodd" d="m372.232 185.899c-11.65 10.8-26.673 18-43.313 19.814-2.693.283-5.442.425-8.249.425-1.276 0-2.551-.028-3.798-.085-.482 24.492-12.727 49.663-27.807 62.334 15.108-6.123 31.634-9.524 48.925-9.524 1.105 0 2.211.028 3.316.057l46.374-27.326 61.737-10.573c29.31-5.017 29.196-47.849-10.034-43.172z" fill="#ffd0c7" fill-rule="evenodd"/></g></g><g><path d="m255.985 390.001h-.028c-5.522 0-9.985 4.478-9.985 10s4.491 10 10.014 10 10-4.478 10-10-4.478-10-10.001-10z"/><path d="m511.994 270.757c-.08-7.106-7.743-11.949-14.193-8.951-15.913 7.362-32.897 11.096-50.48 11.096-17.591 0-34.563-3.732-50.445-11.093-.002-.001-.004-.001-.005-.002 0 0-.001 0-.001-.001-8.29-3.834-16.829-6.819-25.565-8.954l19.874-11.711 59.929-10.264c20.889-3.576 31.06-21.646 28.824-37.05-2.193-15.11-15.942-28.991-41.736-25.907l-43.12 5.169c6.413-11.19 10.38-23.936 11.184-37.497 20.771-17.124 35.351-56.837 26.505-75.392-3.597-7.546-12.323-13.974-26.029-9.39-14.785 4.944-29.104 2.121-45.687-1.148-11.842-2.334-25.264-4.98-40.376-4.98-47.277 0-85.74 38.464-85.74 85.742 0 7.088.889 14.161 2.635 21.072-20.611-2.377-59.805-6.897-61.998-7.15-2.891-.333-5.889.137-8.778.351-1.43.106-76.209 5.632-76.209 5.632-23.835 1.779-36.037 20.437-35.417 37.089.589 15.784 12.945 32.773 38.685 32.773h56.139c.127.097 4.757 3.568 4.757 3.568l-32.226 25.146c-1.061-.023-2.122-.042-3.187-.042-20.503 0-40.312 4.354-58.877 12.942-.002.001-.003.002-.005.002h-.001c-15.884 7.36-32.856 11.093-50.447 11.093-5.522 0-10 4.478-10 10v174.417c0 5.522 4.478 10 10 10h492c5.522 0 10-4.478 10-10v-186.435c-.004-.042-.01-.083-.01-.125zm-71.427-82.979c11.09-1.323 18.579 2.099 19.569 8.921.847 5.838-3.213 12.891-12.407 14.465l-57.101 9.779c-2.668.457-5.653.636-8.025 2.035l-43.943 25.894c-.224-.001-.446-.009-.67-.009-7.705 0-15.309.615-22.784 1.837 5.565-10.666 9.405-22.687 10.935-34.734 1.294-.078 2.584-.178 3.863-.312 17.845-1.946 33.88-9.257 46.607-20.209zm-170.958-15.953c17.216-6.026 31.246-23.131 36.072-45.971 1.104-5.234 5.396-8.957 12.758-11.064 17.636-5.048 47.788 1.182 67.832 19.71-1.941 31.782-26.401 57.78-58.398 61.269-2.341.246-4.765.371-7.203.371-20.202-.001-38.741-9.051-51.061-24.315zm51.062-107.143c13.159 0 25.029 2.34 36.508 4.603 15.082 2.974 29.482 5.812 44.975 3.221 3.576-.598 8.971-1.672 12.765-3.19.514 1.58 1.031 5.586-.407 12.662-2.643 13.008-9.847 26.937-17.712 35.15-25.419-21.42-61.345-28.01-83.864-21.565-14.623 4.186-24.149 13.479-26.823 26.162-3.236 15.309-13.232 30.119-26.822 32.214-.837-2.186-1.576-4.441-2.192-6.751-1.438-5.473-2.167-11.112-2.167-16.764-.001-36.25 29.49-65.742 65.739-65.742zm-149.343 171.504 9.129 6.84c1.798 1.348 3.902 1.998 5.988 1.998 3.042 0 6.046-1.383 8.011-4.005 3.312-4.42 2.413-10.688-2.007-13.999 0 0-31.196-23.419-31.564-23.732-2.892-2.457-5.387-3.306-9.217-3.138-.379.018-57.82.041-57.82.041-13.415 0-18.454-6.983-18.698-13.519-.271-7.27 4.908-15.503 16.912-16.398l81.515-6.024 72.482 8.359c12.807 22.686 34.779 38.01 60.029 42.299-2.591 17.236-11.251 34.912-22.392 44.897-1.522.642-3.04 1.301-4.546 1.999-.002.001-.005.002-.007.003-15.915 7.362-32.899 11.096-50.481 11.096-17.583 0-34.566-3.733-50.479-11.096-.005-.003-.011-.004-.017-.007-8.919-4.131-18.133-7.272-27.577-9.429zm320.672 148.112c-14.216 5.704-29.216 8.595-44.68 8.595-17.591 0-34.563-3.732-50.452-11.096-18.566-8.588-38.376-12.942-58.878-12.942-12.672 0-25.27 1.704-37.442 5.065-5.323 1.471-8.447 6.978-6.978 12.302 1.471 5.323 6.979 8.443 12.302 6.978 10.438-2.883 21.245-4.345 32.118-4.345 17.582 0 34.566 3.732 50.475 11.092 18.537 8.591 38.339 12.946 58.855 12.946 15.36 0 30.33-2.444 44.68-7.281v41.707h-472v-34.786c16.954-1.188 33.348-5.399 48.85-12.583 15.914-7.362 32.898-11.095 50.48-11.095 17.59 0 34.562 3.731 50.467 11.101 12.303 5.669 25.269 9.529 38.537 11.472 5.462.799 10.542-2.98 11.343-8.446.8-5.464-2.981-10.543-8.446-11.343-11.374-1.665-22.499-4.979-33.045-9.838-18.538-8.59-38.341-12.945-58.855-12.945-20.503 0-40.312 4.354-58.883 12.945-12.853 5.956-26.418 9.534-40.447 10.684v-39.961c16.95-1.188 33.34-5.397 48.843-12.58.002-.001.004-.001.006-.002 15.874-7.343 32.858-11.066 50.48-11.066 17.629 0 34.6 3.722 50.443 11.061.003.002.006.004.01.005 18.564 8.589 38.374 12.943 58.878 12.943 20.503 0 40.312-4.354 58.878-12.943.002-.001.003-.002.005-.002h.001c15.843-7.341 32.815-11.063 50.446-11.063 17.619 0 34.6 3.722 50.473 11.063 0 0 .001 0 .001.001 18.537 8.591 38.339 12.946 58.855 12.946 15.36 0 30.33-2.444 44.68-7.281zm0-60.01c-14.216 5.704-29.216 8.595-44.68 8.595-17.591 0-34.563-3.732-50.445-11.093-.002-.001-.004-.001-.005-.002 0 0-.001 0-.001-.001-18.525-8.569-38.335-12.914-58.878-12.914-20.551 0-40.348 4.344-58.842 12.911-.002.001-.005.002-.007.003-15.915 7.362-32.899 11.096-50.481 11.096-17.583 0-34.566-3.733-50.479-11.096-.005-.003-.011-.004-.017-.007-18.492-8.565-38.286-12.907-58.834-12.907-20.543 0-40.353 4.345-58.877 12.914-.002.001-.003.002-.005.002h-.001c-12.853 5.956-26.418 9.534-40.447 10.684v-39.933c16.95-1.188 33.34-5.397 48.843-12.58.002-.001.004-.001.006-.002 15.914-7.362 32.898-11.095 50.48-11.095 17.588 0 34.559 3.731 50.443 11.09.003.002.006.004.01.005 18.564 8.589 38.374 12.943 58.878 12.943 20.503 0 40.312-4.354 58.878-12.943.002-.001.003-.002.005-.002h.001c15.884-7.36 32.856-11.092 50.446-11.092 16.76 0 35.667 3.688 50.475 11.092 18.537 8.591 38.339 12.946 58.855 12.946 15.36 0 30.33-2.444 44.68-7.281v38.667z"/></g></g></svg>