<svg id="Capa_1" enable-background="new 0 0 512 512" height="512" viewBox="0 0 512 512" width="512" xmlns="http://www.w3.org/2000/svg"><g><g><g><g><path d="m299.543 96.046c.034-39.11-24.605-72.476-59.214-85.383-5.132-1.914-10.699-2.422-16.07-1.348-.026.005-.051.01-.077.015-41.293 8.293-72.109 44.722-72.072 88.459l.008 30.734h.691v16.851h-.686l.038 147.933h147.341z" fill="#efc984"/><g><path d="m359.882 128.523c.001-3.315.007-27.747.008-30.734.043-49.852-40.358-90.288-90.21-90.288-.097 0-26.804-.005-27.86.006-6.039.033-11.936.659-17.639 1.823 41.143 8.411 72.084 44.829 72.046 88.459l-.05 195.518h63.663l.038-147.933h-.686v-16.851z" fill="#e8ae4d"/></g><path d="m406.3 403.281-26.002-80.283c-5.689-17.564-20.005-30.972-37.903-35.499l-83.621-21.151c-7.609-1.925-13.316-8.233-14.472-15.996l-8.426-56.593h-17.987l-8.426 56.593c-1.156 7.763-6.863 14.071-14.472 15.996l-83.621 21.151c-17.899 4.527-32.215 17.935-37.903 35.499l-26.002 80.283c-5.673 17.517-1.928 36.72 9.912 50.822l20.263 24.134h298.486l20.263-24.134c11.839-14.102 15.585-33.306 9.911-50.822z" fill="#756e78"/><path d="m464.536 403.281-26.002-80.283c-5.689-17.564-20.005-30.972-37.903-35.499l-83.621-21.151c-7.609-1.925-13.316-8.233-14.472-15.996l-8.426-56.593h-63.233l8.426 56.593c1.156 7.763 6.863 14.071 14.472 15.996l83.621 21.151c17.899 4.527 32.215 17.935 37.903 35.499l26.002 80.283c5.673 17.517 1.928 36.72-9.912 50.822l-20.263 24.134h63.233l20.263-24.134c11.84-14.102 15.585-33.306 9.912-50.822z" fill="#665e66"/><g><path d="m373.328 280.592-56.319-14.245c-7.609-1.925-13.316-8.233-14.472-15.996l-8.426-56.593h-76.223l-8.426 56.593c-1.156 7.763-6.863 14.071-14.472 15.996l-56.319 14.245z" fill="#faefdb"/></g><g><g><g><g><g><g><g><g><path d="m182.397 114.268h-16.021c-7.873 0-14.255 6.382-14.255 14.255v16.851c0 7.879 6.387 14.266 14.266 14.266h16.01z" fill="#f6e2bf"/></g></g></g></g></g></g></g><g><path d="m329.614 114.268h16.021c7.873 0 14.255 6.382 14.255 14.255v16.851c0 7.879-6.387 14.266-14.266 14.266h-16.01z" fill="#f6e2bf"/><path d="m291.853 114.268c-30.407 0-56.744-17.426-69.57-42.835-.527-1.045-2.104-.662-2.104.509 0 14.951-12.12 27.071-27.071 27.071-7.984 0-14.446 6.492-14.41 14.476l.182 40.236c0 51.269 53.82 79.901 77.12 80.4 23.3-.499 77.12-29.131 77.12-80.4l.099-39.456h-41.366z" fill="#faefdb"/><g><path d="m296.215 114.268-.082 39.456c0 40.208-33.102 66.493-58.625 76.203 7.02 2.671 13.466 4.089 18.492 4.196 23.3-.499 77.12-29.131 77.12-80.4l.099-39.456h-37.004z" fill="#f6e2bf"/></g></g></g></g><g><g><g><g><g><g><g><path d="m305.487 271.265h-157.521c-13.154 0-23.817 10.663-23.817 23.817v147.665h205.154v-147.665c.001-13.154-10.662-23.817-23.816-23.817z" fill="#f7f4f7"/><path d="m364.034 271.265h-63.224c13.154 0 23.817 10.663 23.817 23.817v147.665h63.224v-147.665c-.001-13.154-10.664-23.817-23.817-23.817z" fill="#edeaed"/><path d="m411.119 441.094h-310.238c-4.444 0-8.046 3.602-8.046 8.046 0 16.359 13.261 29.62 29.62 29.62h267.091c16.359 0 29.62-13.261 29.62-29.62 0-4.444-3.603-8.046-8.047-8.046z" fill="#c1bcc4"/><path d="m411.119 441.093h-55.178v37.667h33.604c16.359 0 29.62-13.262 29.62-29.62.001-4.444-3.602-8.047-8.046-8.047z" fill="#b2aab5"/></g></g></g></g></g></g><circle cx="256" cy="357.006" fill="#bcd6f9" r="26.825"/><path d="m25.508 469.577c-9.644 0-17.461 7.818-17.461 17.461s7.817 17.462 17.461 17.462h406.708c5.738-.005 10.388-4.658 10.388-10.398v-21.678l-1.874-2.847z" fill="#b58c8c"/><path d="m486.492 469.577h-45.762v24.526c0 5.742-4.655 10.398-10.398 10.398h56.16c9.644 0 17.462-7.818 17.462-17.462 0-9.644-7.818-17.462-17.462-17.462z" fill="#a87f7f"/></g></g></g><g><g><g><path d="m486.497 462.086h-28.782l2.653-3.16c13.589-16.183 17.814-37.848 11.303-57.951l-26.003-80.285c-6.524-20.142-22.672-35.266-43.197-40.458l-12.922-3.268c-5.077-7.128-13.057-12.052-22.204-13.017l.008-31.976c.001-4.14-3.354-7.496-7.493-7.497-.001 0-.001 0-.002 0-4.139 0-7.494 3.354-7.495 7.493l-.008 31.803h-14.966l-18.539-4.689c-4.692-1.188-8.185-5.048-8.897-9.835l-4.259-28.605c17.18-13.524 29.907-31.742 33.75-53.509h6.183c2.357 0 4.626-.382 6.753-1.078l-.008 30.813c-.001 4.14 3.354 7.496 7.493 7.497h.002c4.139 0 7.494-3.354 7.495-7.493.004-5.977.025-76.003.025-99.079.047-54.032-43.665-97.792-97.707-97.792h-27.36l-.321.001c-.059 0-.117.005-.177.005-53.857.267-97.256 43.962-97.21 97.782 0 25.171-.015-.692.043 166.158-9.147.966-17.127 5.889-22.204 13.017l-12.922 3.268c-20.525 5.192-36.673 20.316-43.197 40.458l-26.003 80.285c-6.511 20.104-2.286 41.768 11.302 57.95l2.654 3.161h-28.782c-13.761 0-24.957 11.196-24.957 24.957 0 13.762 11.195 24.958 24.957 24.958h460.995c13.761 0 24.957-11.196 24.957-24.957-.001-13.761-11.196-24.957-24.958-24.957zm-87.702-167.321c15.496 3.919 27.687 15.337 32.612 30.543l26.003 80.285c4.91 15.158 1.724 31.492-8.522 43.694l-10.746 12.8h-13.809c1.525-4.096 2.331-8.464 2.331-12.942 0-8.57-6.972-15.542-15.542-15.542h-15.774v-138.521c0-.401-.015-.799-.03-1.197zm12.328 153.827c.304 0 .551.247.551.551 0 4.698-1.494 9.189-4.216 12.942h-302.916c-2.722-3.754-4.216-8.245-4.216-12.942 0-.305.247-.551.551-.551zm-58.738-302.979c-.129 3.621-3.107 6.528-6.758 6.528h-5.005l.076-30.381h4.94c3.675 0 6.669 2.95 6.752 6.605zm-130.921-109.679c0-11.461 9.154-20.816 20.485-20.934.124 0 .247-.009.371-.009h27.36c45.741 0 82.757 37.035 82.717 82.793l-.002 8.986c-10.306 0-29.87 0-60.541 0-38.813 0-70.389-31.577-70.389-70.39v-.446zm2.317 51.909c15.603 20.588 40.307 33.917 68.072 33.917h33.853l-.08 31.962c0 25.437-14.895 44.767-31.688 57.112-.11.062-20.128 15.295-37.939 15.791-16.453-.459-37.073-15.299-37.922-15.782-16.8-12.349-31.705-31.691-31.705-57.156-.17-37.505-.005-1.194-.182-40.237-.017-3.834 3.08-6.947 6.916-6.947 13.327.001 24.909-7.584 30.675-18.66zm76.523 175.927h-88.608c2.673-3.529 4.497-7.73 5.18-12.316l3.206-21.534c13.597 7.755 26.83 11.506 35.758 11.697.054.001.107.002.161.002s.107-.001.161-.002c8.928-.191 22.161-3.941 35.758-11.697l3.206 21.534c.681 4.586 2.505 8.787 5.178 12.316zm-133.93-96.638h6.185c3.84 21.745 16.545 39.966 33.748 53.509l-4.259 28.605c-.712 4.787-4.205 8.647-8.896 9.834l-18.541 4.689h-14.966l-.025-97.715c2.128.697 4.396 1.078 6.754 1.078zm-6.759-21.519-.004-17.248c.083-3.655 3.077-6.605 6.752-6.605h4.875l.138 30.381h-5.002c-3.652.001-6.63-2.907-6.759-6.528zm49.733-123.792c-1.847 4.337-2.874 9.107-2.874 14.112.101 1.027-.707 15.256 6.209 32.354v3.65c0 10.794-8.782 19.576-19.576 19.576-9.856 0-18.075 6.457-20.869 15.256h-5.875c-2.359 0-4.629.382-6.757 1.08l-.003-10.07c-.03-34.334 20.709-63.334 49.745-75.958zm-154.757 383.772 26.003-80.285c4.925-15.205 17.116-26.623 32.611-30.543l3.477-.879c-.015.398-.03.795-.03 1.197v44.421c0 4.14 3.356 7.495 7.495 7.495 4.14 0 7.495-3.355 7.495-7.495v-44.421c0-9 7.322-16.322 16.322-16.322h216.072c9 0 16.322 7.322 16.322 16.322v138.519h-248.716v-59.058c0-4.14-3.356-7.495-7.495-7.495-4.14 0-7.495 3.355-7.495 7.495v59.058h-15.774c-8.57 0-15.542 6.972-15.542 15.542 0 4.478.807 8.847 2.331 12.942h-13.808l-10.747-12.801c-10.245-12.2-13.431-28.535-8.521-43.692zm431.906 91.416h-460.994c-5.496 0-9.966-4.471-9.966-9.966 0-5.496 4.471-9.966 9.966-9.966h460.995c5.496 0 9.966 4.471 9.966 9.966s-4.471 9.966-9.967 9.966z"/><path d="m256 391.329c18.925 0 34.321-15.397 34.321-34.321s-15.396-34.322-34.321-34.322-34.321 15.397-34.321 34.321 15.396 34.322 34.321 34.322zm0-53.652c10.659 0 19.331 8.671 19.331 19.331s-8.672 19.331-19.331 19.331-19.331-8.671-19.331-19.331 8.672-19.331 19.331-19.331z"/></g></g></g></g></svg>