<svg height="512" viewBox="0 0 512 512" width="512" xmlns="http://www.w3.org/2000/svg" xmlns:xlink="http://www.w3.org/1999/xlink"><linearGradient id="New_Gradient_Swatch_16" gradientUnits="userSpaceOnUse" x1="88.608" x2="421.389" y1="497.643" y2="164.863"><stop offset=".004" stop-color="#dd888a"/><stop offset="1" stop-color="#ecbbbc"/></linearGradient><linearGradient id="New_Gradient_Swatch_1" gradientUnits="userSpaceOnUse" x1="146" x2="366" y1="498" y2="278"><stop offset=".004" stop-color="#f1cccd"/><stop offset="1" stop-color="#faeeee"/></linearGradient><linearGradient id="New_Gradient_Swatch_3" gradientUnits="userSpaceOnUse" x1="184" x2="328" y1="536" y2="392"><stop offset=".011" stop-color="#606082"/><stop offset="1" stop-color="#83839e"/></linearGradient><linearGradient id="New_Gradient_Swatch_11" gradientUnits="userSpaceOnUse" x1="303.803" x2="462.195" y1="319.196" y2="160.804"><stop offset=".011" stop-color="#60c6be"/><stop offset="1" stop-color="#80d1cb"/></linearGradient><g id="_06-garage" data-name="06-garage"><g id="linear_color" data-name="linear color"><path d="m493 236.47-224.045-160a24.01 24.01 0 0 0 -27.905 0l-224.05 160 27.9 39.06 42.059-26.751v247.221h336.074v-247.221l42.058 26.751z" fill="url(#New_Gradient_Swatch_16)"/><path d="m144 280h224v216h-224z" fill="url(#New_Gradient_Swatch_1)"/><path d="m144 432h224v64h-224z" fill="url(#New_Gradient_Swatch_3)"/><circle cx="382.999" cy="240" fill="url(#New_Gradient_Swatch_11)" r="112"/><path d="m507 240a124.016 124.016 0 0 0 -156.127-119.771l-74.951-53.529a36 36 0 0 0 -41.846 0l-224.05 160a12 12 0 0 0 -2.79 16.742l27.91 39.059a12 12 0 0 0 16.206 3.149l23.608-15.014v225.364a12 12 0 0 0 12 12h336.07a12 12 0 0 0 12-12v-143.461a124.161 124.161 0 0 0 71.97-112.539zm-414.265-1.739a12 12 0 0 0 -12.216.394l-32.456 20.645-14.321-20.04 214.285-153.027a12 12 0 0 1 13.95 0l62.367 44.539a124.047 124.047 0 0 0 -62.156 137.228h-118.188a12 12 0 0 0 -12 12v204h-33.04v-235.22a12 12 0 0 0 -6.225-10.519zm263.265 181.739h-88v-39.029l3.515 3.514a12 12 0 0 0 16.97-16.97l-24-24a12 12 0 0 0 -16.97 0l-24 24a12 12 0 0 0 16.97 16.97l3.515-3.514v39.029h-88v-128h114.445a124.478 124.478 0 0 0 85.555 69.031zm-200 64v-40h200v40zm255.03 0h-31.03v-120.038q1.5.036 3 .038a123.932 123.932 0 0 0 28.031-3.2zm-28.03-144a100 100 0 1 1 100-100 100.113 100.113 0 0 1 -100 100z"/><path d="m383.549 284a12 12 0 1 0 12 12 12 12 0 0 0 -12-12z"/><path d="m421.744 239.73a68.042 68.042 0 0 0 -77.726.933 12 12 0 1 0 13.962 19.52 44.044 44.044 0 0 1 50.274-.6 12 12 0 1 0 13.49-19.85z"/><path d="m454.324 204.079a116.049 116.049 0 0 0 -142.777.96 12 12 0 1 0 14.9 18.81 92.055 92.055 0 0 1 113.223-.762 12 12 0 1 0 14.65-19.008z"/></g></g></svg>