<svg id="Layer_1_1_" enable-background="new 0 0 64 64" height="512" viewBox="0 0 64 64" width="512" xmlns="http://www.w3.org/2000/svg"><circle cx="56" cy="52" fill="#c9f364" r="5"/><path d="m14 43v18h24v-18h-5v1c0 3.866-3.134 7-7 7-3.866 0-7-3.134-7-7v-1z" fill="#71caf0"/><path d="m14 54h24v7h-24z" fill="#46afda"/><path d="m46 49v12h-8v-18h2c3.314 0 6 2.686 6 6z" fill="#fce0b9"/><path d="m6 49v12h8v-18h-2c-3.314 0-6 2.686-6 6z" fill="#fce0b9"/><path d="m16 3c-4.418 0-8 3.582-8 8v7.704c0 6.753-1.721 13.393-5 19.296l3.518-2.559c2.921-2.124 5.529-4.63 7.759-7.441l7.723-22.291c-1.465-1.661-3.61-2.709-6-2.709z" fill="#904c2a"/><path d="m22 5.709c-.53-.6-1.151-1.117-1.837-1.537-5.252.918-9.163 5.694-9.163 11.193v4.635 6c0 1.639.368 3.19 1.012 4.587.788-.834 1.553-1.689 2.266-2.587z" fill="#733d21"/><path d="m32.243 17.97-.315-.699c-.766-1.698-3.164-1.733-3.981-.059-.557 2.226-2.557 3.788-4.851 3.788h-8.096v6c0 6.075 4.925 11 11 11s11-4.925 11-11v-6h-.877c-1.835 0-3.435-1.249-3.88-3.03z" fill="#fce0b9"/><path d="m25.794 5.002c-6.056.111-10.794 5.306-10.794 11.363v4.635h8.096c2.294 0 4.294-1.562 4.851-3.787.816-1.674 3.214-1.639 3.981.059l.315.699c.445 1.781 2.045 3.03 3.881 3.03h.876v-5c0-6.145-5.037-11.112-11.206-10.999z" fill="#904c2a"/><path d="m37 21.463c-1.062.953-2.461 1.537-4 1.537h-14c-1.539 0-2.938-.584-4-1.537v2.933.067c1.062.953 2.461 1.537 4 1.537h14c1.539 0 2.938-.584 4-1.537v-.02z" fill="#f5cba1"/><path d="m25.794 5.002c-6.056.111-10.794 5.306-10.794 11.363v2c0-6.057 4.738-11.252 10.794-11.363 6.169-.113 11.206 4.854 11.206 10.998v-2c0-6.144-5.037-11.111-11.206-10.998z" fill="#ab5a32"/><path d="m26 51c3.866 0 7-3.134 7-7v-1h-2v-6h-.437c-1.391.636-2.933 1-4.563 1s-3.172-.364-4.563-1h-.437v6h-2v1c0 3.866 3.134 7 7 7z" fill="#fce0b9"/><path d="m31 39.79v-2.79h-.437c-1.391.636-2.933 1-4.563 1s-3.172-.364-4.563-1h-.437v2.79c1.501.768 3.198 1.21 5 1.21s3.499-.442 5-1.21z" fill="#f5cba1"/><path d="m33 23c1.539 0 2.938-.584 4-1.537v-.02.02c1.225-1.099 2-2.688 2-4.463h-26c0 1.775.775 3.365 2 4.463v-.067.067c1.062.953 2.461 1.537 4 1.537z" fill="#fff"/><path d="m39 13c0-.552-.448-1-1-1h-24c-.552 0-1 .448-1 1v4h26z" fill="#71caf0"/><path d="m59.195 30.112c2.894-6.71.922-13.177-5.164-15.802s-12.143.378-15.037 7.088-.035 15.232 4.556 17.212 12.751-1.787 15.645-8.498z" fill="#fff"/><path d="m13.5 23c-1.381 0-2.5 1.119-2.5 2.5s1.119 2.5 2.5 2.5h1.5v-5z" fill="#fce0b9"/><path d="m33 58.02 4.591 1.98 4.753-11.019-3.673-1.584-.918-.396z" fill="#fff"/><path d="m32 12h3v5h-3z" fill="#fff"/><path d="m56 55c-2.419 0-4.436-1.718-4.899-4-.066.323-.101.657-.101 1 0 2.761 2.239 5 5 5s5-2.239 5-5c0-.343-.035-.677-.101-1-.463 2.282-2.48 4-4.899 4z" fill="#add156"/><path d="m21 27.75c-.965 0-1.75-.785-1.75-1.75s.785-1.75 1.75-1.75 1.75.785 1.75 1.75-.785 1.75-1.75 1.75zm0-2c-.138 0-.25.112-.25.25 0 .275.5.275.5 0 0-.138-.112-.25-.25-.25z"/><path d="m31 27.75c-.965 0-1.75-.785-1.75-1.75s.785-1.75 1.75-1.75 1.75.785 1.75 1.75-.785 1.75-1.75 1.75zm0-2c-.138 0-.25.112-.25.25 0 .275.5.275.5 0 0-.138-.112-.25-.25-.25z"/><path d="m26 34.75c-2.068 0-3.75-1.683-3.75-3.75h1.5c0 1.24 1.009 2.25 2.25 2.25s2.25-1.01 2.25-2.25h1.5c0 2.067-1.682 3.75-3.75 3.75z"/><path d="m40 13c0-1.06-.831-1.921-1.875-1.987-2.5-4.338-7.088-7.013-12.125-7.013-1.296 0-2.563.178-3.772.515-1.67-1.602-3.897-2.515-6.228-2.515-4.962 0-9 4.037-9 9v7.704c0 6.566-1.686 13.071-4.874 18.811-.228.41-.14.923.211 1.234.188.166.425.251.663.251.206 0 .412-.063.588-.191l3.519-2.559c2.682-1.951 5.099-4.237 7.229-6.777.772 3.33 2.858 6.157 5.664 7.846v4.681h-8c-3.86 0-7 3.141-7 7v12c0 .553.448 1 1 1h40c.552 0 1-.447 1-1v-12c0-1.765-.673-3.458-1.86-4.745 1.042-1.24 2.267-2.326 3.648-3.221l4.632-3.006-.022-.034c2.788-1.652 5.3-4.206 6.714-7.485 1.527-3.54 1.811-7.044.82-10.135-1.016-3.17-3.265-5.584-6.505-6.981-3.24-1.398-6.54-1.376-9.543.06-1.908.913-3.567 2.348-4.918 4.212.021-.22.034-.441.034-.665zm1.029 36.504-3.96 9.182-2.755-1.188 3.96-9.182zm-2.922-3.43c-.233-.088-.49-.095-.723-.003-.247.099-.444.29-.549.533l-4.753 11.019c-.105.244-.109.52-.011.766s.29.444.533.549l2.463 1.062h-20.067v-16h3.067c.322 3.051 2.082 5.808 4.778 7.349.973.556 2.064.834 3.155.834s2.182-.278 3.155-.834c2.696-1.541 4.456-4.298 4.778-7.349h4.77c-.153.703-.351 1.395-.596 2.074zm-3.701-10.511c1.279-1.255 2.227-2.749 2.832-4.376l1.334 5.144c.481 1.852.62 3.775.444 5.669h-7.016v-4.617c.863-.501 1.675-1.102 2.406-1.82zm-1.406-13.563h-14c-2.414 0-4.434-1.721-4.899-4h23.798c-.465 2.279-2.485 4-4.899 4zm-18.982 5h-.518c-.827 0-1.5-.673-1.5-1.5s.673-1.5 1.5-1.5h.5v2.635c0 .123.014.243.018.365zm-.018-14h24v3h-24zm21.749-2h-19.498c2.237-3.119 5.836-5 9.749-5s7.512 1.881 9.749 5zm-29.818 23.633-.255.185c2.183-5.075 3.324-10.574 3.324-16.114v-7.704c0-3.859 3.14-7 7-7 1.475 0 2.898.47 4.077 1.316-2.564 1.196-4.74 3.16-6.202 5.697-1.044.066-1.875.927-1.875 1.987v4c0 1.902.765 3.627 2 4.889v.111h-.5c-1.93 0-3.5 1.57-3.5 3.5 0 1.509.965 2.786 2.306 3.276-1.904 2.18-4.033 4.153-6.375 5.857zm10.069-7.998v-3.32c.911.434 1.925.685 3 .685h14c1.075 0 2.089-.251 3-.685v3.685c0 2.706-1.063 5.24-2.995 7.137-1.93 1.895-4.459 2.92-7.193 2.861-5.41-.099-9.812-4.747-9.812-10.363zm9.775 12.363c.077.001.152.002.228.002 1.385 0 2.728-.246 3.997-.694v4.694c0 .553.448 1 1 1h.933c-.311 2.334-1.696 4.427-3.77 5.612-1.334.761-2.991.761-4.325 0-2.075-1.185-3.459-3.278-3.77-5.612h.932c.552 0 1-.447 1-1v-4.723c1.187.438 2.454.697 3.775.721zm-18.775 10.002c0-2.757 2.243-5 5-5h1v16h-6zm38 0v11h-6.319l4.581-10.622c.217-.504-.013-1.086-.513-1.308.34-.752.733-1.471 1.175-2.157.688.875 1.076 1.96 1.076 3.087zm-4.087-1.724-.967-.417c1.039-2.828 1.37-5.884.97-8.865.694.66 1.443 1.193 2.237 1.536.935.403 2.006.598 3.151.598.104 0 .211-.011.316-.014-2.476 1.866-4.427 4.319-5.707 7.162zm4.835-32.02c1.243-.595 2.552-.892 3.89-.892 1.317 0 2.662.288 3.998.864 2.694 1.162 4.559 3.152 5.393 5.756.841 2.624.581 5.644-.752 8.731-2.724 6.316-10.285 9.723-14.331 7.978-1.957-.844-3.646-3.158-4.52-6.191-.942-3.269-.765-6.807.486-9.706 0 0 0 0 0-.001 1.333-3.089 3.35-5.35 5.836-6.539z"/><path d="m40.577 25.466-.779 1.842 3.611 1.529-.76 1.762 1.837.793.766-1.775 1.841.779-.771 1.787 1.836.793.776-1.8 1.842.78-.782 1.812 1.837.793.787-1.825 1.848.782.779-1.842-1.835-.777.792-1.837 1.848.782.779-1.842-1.835-.777.797-1.849 1.836.792.792-1.836-1.836-.792.792-1.836-1.837-.793-.792 1.837-1.836-.792.792-1.836-1.836-.793-.792 1.836-1.836-.792.792-1.836-1.837-.793-.792 1.837-3.672-1.584-.792 1.836 3.673 1.584-.824 1.911-3.624-1.534-.779 1.842 3.611 1.529-.793 1.837zm10.991 4.653-1.841-.78.792-1.837 1.841.78zm2.387-5.534-.803 1.861-1.841-.779.808-1.874zm-5.508-2.376 1.836.792-.814 1.886-1.841-.78zm-1.611 3.734 1.841.78-.792 1.836-1.841-.779z"/><path d="m56 46c-3.309 0-6 2.691-6 6s2.691 6 6 6 6-2.691 6-6-2.691-6-6-6zm0 10c-2.206 0-4-1.794-4-4s1.794-4 4-4 4 1.794 4 4-1.794 4-4 4z"/><path d="m56 60c-1.853 0-3.591-.614-5.028-1.776l-1.258 1.555c1.771 1.432 4.004 2.221 6.286 2.221z"/></svg>